# xmcd
#
# Track frame offsets:
#	150
#	14878
#	30128
#	49019
#	65995
#	83092
#	104629
#	116848
#	132716
#	147595
#
# Disc length: 2290 seconds
#
# Revision: 0
# Processed by: cddbd v1.5.2PL0 Copyright (c) Steve Scherf et al.
# Submitted via: EasyCDDAExtractor 16.0.6.1
#
DISCID=9a08f00a
DTITLE=Dave Lindholm B Inventive - Honest eyes
DYEAR=2012
DGENRE=
TTITLE0=Dulldorf Station
TTITLE1=Do The Handclap
TTITLE2=Lifelight
TTITLE3=Go YoYo
TTITLE4=When The Sun Comes Along
TTITLE5=There’s A World Outside
TTITLE6=Believe Me
TTITLE7=I Can Help You Out
TTITLE8=Was It Valery?
TTITLE9=5 Words
EXTD=
EXTT0=
EXTT1=
EXTT2=
EXTT3=
EXTT4=
EXTT5=
EXTT6=
EXTT7=
EXTT8=
EXTT9=
PLAYORDER=
